<?xml version="1.0" standalone="no"?>
<!DOCTYPE svg PUBLIC "-//W3C//DTD SVG 20010904//EN"
 "http://www.w3.org/TR/2001/REC-SVG-20010904/DTD/svg10.dtd">
<svg version="1.0" xmlns="http://www.w3.org/2000/svg"
 width="512.000000pt" height="512.000000pt" viewBox="0 0 512.000000 512.000000"
 preserveAspectRatio="xMidYMid meet">
<metadata>
Created by potrace 1.16, written by Peter Selinger 2001-2019
</metadata>
<g transform="translate(0.000000,512.000000) scale(0.100000,-0.100000)"
fill="#000000" stroke="none">
<path d="M2365 5104 c-87 -47 -114 -103 -115 -231 l0 -93 -669 -2 c-658 -3
-670 -3 -697 -24 -15 -11 -37 -33 -48 -48 l-21 -27 0 -1907 c0 -1899 0 -1907
20 -1942 39 -67 56 -70 369 -70 l279 0 -6 -27 c-3 -16 -29 -173 -58 -351 l-52
-323 20 -27 c15 -20 30 -28 61 -30 72 -5 72 -5 138 398 l58 360 688 0 c378 0
688 -3 688 -7 0 -5 27 -166 58 -360 64 -390 66 -393 134 -393 46 0 78 28 78
69 0 26 -92 613 -105 669 -5 22 -5 22 125 22 71 0 130 -3 130 -7 0 -5 27 -166
58 -360 64 -390 66 -393 134 -393 46 0 78 28 78 69 0 26 -92 613 -105 669 l-5
22 297 0 c334 0 349 3 388 70 20 35 20 44 20 1643 l0 1609 -29 25 c-33 28 -75
26 -108 -4 -17 -15 -18 -51 -18 -675 l0 -658 -119 0 c-114 0 -121 -1 -150 -26
-40 -33 -51 -77 -51 -206 l0 -108 -99 0 c-86 0 -102 -3 -126 -22 -45 -35 -55
-74 -55 -213 l0 -125 -165 0 -165 0 0 338 c0 409 13 376 -150 387 -204 13
-371 51 -539 124 -105 45 -240 127 -308 187 l-47 41 33 54 c105 171 283 302
510 373 185 59 310 76 579 83 206 5 225 7 254 27 64 43 73 66 76 192 3 91 0
120 -12 138 -30 47 -111 41 -135 -10 -6 -14 -11 -61 -11 -104 l0 -80 -125 0
-125 0 0 400 0 400 465 0 465 0 0 -130 c0 -117 2 -132 20 -150 26 -26 80 -26
111 -1 23 19 24 23 24 178 0 147 -2 161 -23 194 -43 71 -21 69 -781 69 l-679
0 -4 98 c-4 116 -23 162 -87 207 -42 30 -44 30 -189 32 -120 3 -153 0 -177
-13z m281 -158 c9 -13 14 -46 14 -93 l0 -73 -125 0 -126 0 3 82 c3 76 5 83 28
96 16 8 54 12 108 10 69 -3 86 -6 98 -22z m414 -729 l0 -404 -86 -12 c-425
-59 -773 -264 -916 -538 l-33 -63 -182 0 -183 0 0 145 c0 143 0 146 -26 172
-21 21 -32 24 -62 20 -64 -11 -67 -19 -70 -200 -3 -152 -2 -165 20 -207 17
-33 35 -51 68 -67 42 -22 57 -23 248 -23 l204 0 81 -66 c232 -186 548 -311
840 -330 l97 -7 0 -284 0 -283 -302 0 -303 1 -315 271 c-173 149 -349 298
-390 331 -202 162 -417 196 -692 107 l-88 -28 0 879 c0 483 2 879 5 879 3 0
122 -108 265 -240 l260 -241 0 -118 c0 -105 2 -121 21 -145 27 -34 82 -36 116
-4 22 21 23 28 23 167 -1 118 -4 152 -18 177 -9 17 -133 138 -274 268 -142
131 -258 239 -258 242 0 2 439 4 975 4 l975 0 0 -403z m-1566 -1578 c80 -30
106 -49 414 -314 l291 -250 -196 -3 -196 -2 -281 75 -281 75 -138 0 -137 0 2
182 3 182 101 33 c175 56 310 63 418 22z m2656 -874 l0 -845 -825 0 -825 0 0
495 0 495 571 2 571 3 34 37 34 38 0 140 0 140 85 0 c97 0 141 14 173 55 20
25 22 40 22 156 l0 129 80 0 80 0 0 -845z m-2817 264 c61 -16 137 -37 167 -46
l55 -15 -65 -34 -65 -33 -227 -1 -228 0 0 80 0 80 125 0 c109 0 140 -4 238
-31z m857 -124 c0 -7 -477 -407 -508 -425 -75 -46 -111 -50 -419 -50 l-293 0
0 160 0 160 258 0 257 1 160 79 160 78 193 1 c105 1 192 -1 192 -4z m150 -540
l0 -445 -685 0 -685 0 0 174 0 175 323 3 c435 4 386 -16 792 327 138 116 251
211 253 211 1 0 2 -200 2 -445z"/>
<path d="M3024 3425 c-158 -28 -367 -107 -419 -159 -33 -33 -33 -79 0 -111 33
-34 63 -31 148 11 39 20 101 47 137 59 l65 22 1 -66 c1 -81 25 -132 88 -188
162 -142 417 -30 420 184 1 43 5 63 14 63 6 0 60 -25 118 -55 59 -30 115 -55
126 -55 11 0 33 14 50 30 25 26 29 36 24 63 -3 18 -18 42 -34 55 -44 37 -200
109 -287 132 -104 28 -333 36 -451 15z m245 -166 c29 -27 43 -64 35 -95 -9
-33 -60 -74 -94 -74 -34 0 -85 41 -94 74 -14 55 36 116 94 116 23 0 44 -8 59
-21z"/>
<path d="M1886 551 c-23 -25 -29 -51 -67 -289 l-32 -203 20 -27 c15 -20 30
-28 61 -30 69 -5 74 8 116 266 20 125 36 233 36 240 0 7 -11 24 -25 37 -30 31
-84 34 -109 6z"/>
</g>
</svg>
